<?xml version="1.0" encoding="UTF-8" standalone="no"?>
<!-- Created with Inkscape (http://www.inkscape.org/) -->

<svg
   width="256"
   height="256"
   viewBox="0 0 67.733332 67.733333"
   version="1.1"
   id="svg1"
   xml:space="preserve"
   inkscape:version="1.3.2 (091e20ef0f, 2023-11-25, custom)"
   sodipodi:docname="ratp.svg"
   xmlns:inkscape="http://www.inkscape.org/namespaces/inkscape"
   xmlns:sodipodi="http://sodipodi.sourceforge.net/DTD/sodipodi-0.dtd"
   xmlns="http://www.w3.org/2000/svg"
   xmlns:svg="http://www.w3.org/2000/svg"><sodipodi:namedview
     id="namedview1"
     pagecolor="#ffffff"
     bordercolor="#666666"
     borderopacity="1.0"
     inkscape:showpageshadow="2"
     inkscape:pageopacity="0.0"
     inkscape:pagecheckerboard="0"
     inkscape:deskcolor="#d1d1d1"
     inkscape:document-units="mm"
     inkscape:zoom="1.1204819"
     inkscape:cx="44.623656"
     inkscape:cy="45.516129"
     inkscape:window-width="1592"
     inkscape:window-height="874"
     inkscape:window-x="0"
     inkscape:window-y="18"
     inkscape:window-maximized="1"
     inkscape:current-layer="layer1" /><defs
     id="defs1" /><g
     inkscape:label="Layer 1"
     inkscape:groupmode="layer"
     id="layer1"><g
       id="g8"
       transform="matrix(1.6992988,0,0,1.6992988,-149.23539,-195.01053)"><g
         id="g1"
         transform="translate(51.019053,-73.541173)"
         style="fill:#000000"><path
           style="fill:#000000;fill-opacity:1"
           d="m 54.818235,221.64421 c -7.761678,-1.66518 -13.152876,-8.37795 -13.139083,-16.35995 0.0036,-2.09575 0.480813,-5.2139 0.855216,-5.58831 0.241378,-0.24138 2.973264,0.93495 3.664478,1.57789 0.660093,0.614 0.676524,0.6992 0.414073,2.14715 -0.374282,2.06493 0.06596,4.91616 1.100405,7.12671 0.919778,1.96552 3.045413,4.36696 4.74923,5.36547 1.414072,0.8287 4.0456,1.66366 5.243329,1.66366 1.029495,0 0.997574,-0.13189 0.605723,2.50273 -0.342092,2.30007 -0.252494,2.25994 -3.493371,1.56465 z m 9.346367,-0.92067 c 0,-0.3066 0.196283,-1.37068 0.436185,-2.36463 0.392451,-1.62598 0.551284,-1.88983 1.584142,-2.63157 1.378513,-0.98997 3.289618,-3.59146 4.043606,-5.50434 2.461189,-6.24408 -0.02212,-13.13548 -5.769478,-16.01076 -4.515354,-2.25894 -9.240453,-1.7474 -13.268302,1.43643 l -1.329445,1.05086 -0.762359,-0.54284 c -0.419298,-0.29857 -1.370186,-0.82446 -2.113085,-1.16865 l -1.350725,-0.6258 1.666252,-1.5587 c 6.931388,-6.48397 18.33212,-5.88841 24.658284,1.28813 1.593335,1.80752 3.21877,5.11 3.745613,7.61016 0.872132,4.13875 -0.09188,9.31858 -2.374188,12.75702 -1.508975,2.27337 -4.333906,4.7892 -6.60319,5.88068 -2.275879,1.09466 -2.56331,1.13772 -2.56331,0.38401 z"
           id="path5" /><path
           style="fill:#000000;fill-opacity:1"
           d="m 61.011527,226.82422 c -0.704899,-3.28682 -0.03369,-8.37261 1.736488,-13.1575 1.246824,-3.37023 1.263264,-3.78998 0.159816,-4.08062 -0.76528,-0.20156 -0.859895,-0.32941 -0.859895,-1.16189 0,-0.89597 -0.03624,-0.9319 -0.859896,-0.85233 -0.789659,0.0763 -0.866439,0.0159 -0.939994,-0.73912 -0.06798,-0.69786 -0.232876,-0.86797 -1.090348,-1.12488 -0.992775,-0.29744 -1.013359,-0.33014 -1.189864,-1.89024 l -0.179613,-1.58757 -2.570933,0.16848 c -2.408549,0.15784 -2.65421,0.12591 -3.889414,-0.50562 -0.725164,-0.37076 -2.009476,-1.21411 -2.854026,-1.87411 -2.392957,-1.87006 -3.996209,-2.36164 -7.195704,-2.2063 -1.455209,0.0707 -2.913724,0.21463 -3.241146,0.31995 -0.539517,0.17355 -0.595313,0.10573 -0.595313,-0.72353 0,-0.82892 0.09336,-0.94257 0.992188,-1.20779 2.747523,-0.81073 5.828899,-0.59475 8.400521,0.58882 0.727604,0.33487 2.215885,1.27845 3.307291,2.09683 2.528563,1.89602 3.235234,2.09884 6.027115,1.72986 2.620293,-0.3463 2.830798,-0.23437 3.07908,1.63728 0.160281,1.20826 0.265135,1.37332 1.091808,1.71872 0.793229,0.33143 0.914497,0.50356 0.914497,1.29798 0,0.87653 0.0341,0.90906 0.793751,0.75713 0.703019,-0.14061 0.794213,-0.0869 0.797801,0.46963 0.0063,0.979 0.39745,1.38007 1.769249,1.81418 1.668801,0.5281 1.703702,0.92106 0.382567,4.30749 -1.602567,4.10783 -2.203726,6.75988 -2.353296,10.38172 -0.07551,1.8284 -0.01438,3.59581 0.14412,4.16718 l 0.275237,0.99219 h -0.88279 c -0.846277,0 -0.89464,-0.0553 -1.169297,-1.33594 z"
           id="path1" /></g></g></g></svg>
