<?xml version="1.0" encoding="UTF-8" standalone="no"?>
<!-- Created with Inkscape (http://www.inkscape.org/) -->

<svg
   width="256"
   height="256"
   viewBox="0 0 67.733332 67.733333"
   version="1.1"
   id="svg1"
   xml:space="preserve"
   xmlns="http://www.w3.org/2000/svg"
   xmlns:svg="http://www.w3.org/2000/svg"><defs
     id="defs1" /><path
     style="fill:#ffffff;stroke-width:0.747855"
     d="M 11.705076,67.579547 C 8.7330643,67.186235 6.1648863,65.863131 3.8893763,63.552955 2.0552233,61.690856 1.0144393,59.900365 0.42381025,57.591027 0.05489225,56.148572 0.03091325,55.380473 0.03091325,45.005753 V 33.956685 H 33.866661 67.702411 v 11.049068 c 0,12.456247 -0.021,12.669662 -1.53065,15.535509 -1.11623,2.119039 -3.61188,4.543 -5.79054,5.624204 -3.27805,1.626801 -1.3972,1.513404 -25.72308,1.550909 -11.916714,0.0184 -22.245594,-0.04323 -22.953065,-0.136828 z M 0.06849425,22.232895 c 0.06584,-4.612864 0.08885,-4.854445 0.595059,-6.249643 C 2.4907223,10.947293 7.0546463,7.3302992 12.117413,6.905855 L 13.4441,6.7946295 13.56603,6.0321378 c 0.62131,-3.8854518 4.03609,-6.51336553 7.690733,-5.91855703 3.151497,0.5129199 5.216598,2.65561213 5.775898,5.99291543 l 0.12435,0.7420125 h 6.70965 6.70964 l 0.12457,-0.7420125 c 0.34964,-2.0828002 1.17007,-3.5411012 2.60999,-4.6391966 1.59748,-1.21825243 3.3759,-1.68169203 5.17623,-1.34888173 3.03345,0.560764 5.13043,2.73611873 5.65033,5.86151213 l 0.13529,0.8133153 1.33494,0.1119172 c 5.08183,0.4260416 9.62987,4.0281315 11.46212,9.0780895 0.50621,1.395198 0.52922,1.636779 0.59506,6.249643 l 0.0685,4.798346 H 33.866661 1.25e-6 Z"
     id="path2" /></svg>
