<?xml version="1.0" encoding="UTF-8" standalone="no"?>
<!-- Created with Inkscape (http://www.inkscape.org/) -->

<svg
   width="256"
   height="256"
   viewBox="0 0 67.733332 67.733333"
   version="1.1"
   id="svg1"
   xml:space="preserve"
   xmlns="http://www.w3.org/2000/svg"
   xmlns:svg="http://www.w3.org/2000/svg"><defs
     id="defs1" /><g
     id="layer1"
     style="fill:#ffffff"><path
       style="fill:#ffffff;stroke-width:0.758532"
       d="M 12.943648,66.48522 C 11.123008,66.225361 8.6814104,65.402439 7.2238454,64.557434 6.5063615,64.141477 5.1964368,63.077485 4.3129006,62.193002 1.9573349,59.83492 0.85238868,57.545739 0.29147743,53.861582 0.05501972,52.308495 9.7801895e-4,48.693538 1.3918951e-5,34.36527 -0.00124588,16.12499 0.08261222,13.799528 0.82930396,11.360039 2.4720467,5.993079 6.9462929,2.2574556 12.78595,1.3772353 15.662209,0.94369163 52.146754,0.93872061 54.989208,1.3715181 61.129484,2.3063741 65.120563,5.5459363 67.09679,11.199268 l 0.636543,1.820945 V 33.89248 54.764736 l -0.691466,1.998588 c -1.875528,5.420928 -6.23332,8.91913 -12.11735,9.727168 -1.900325,0.260964 -40.149294,0.256206 -41.980869,-0.0048 z M 43.14821,58.074679 c 5.284853,-0.269021 7.59161,-0.885419 10.152615,-2.712912 3.345041,-2.38697 5.025595,-5.588163 5.501378,-10.479265 C 59.05401,42.294013 59.053894,25.874997 58.802058,23.03029 58.182861,16.036021 54.531874,11.712996 47.964886,10.198316 46.664989,9.8984913 44.962768,9.8392102 35.484952,9.7636885 21.422034,9.6516322 19.843313,9.7981368 16.255113,11.548196 c -3.223162,1.572019 -5.68723,4.665959 -6.6386693,8.335652 -1.0436409,4.025316 -1.041763,23.991984 0.00262,28.025512 1.0059793,3.885162 3.3061583,6.777397 6.7363813,8.470304 2.153505,1.062808 4.172823,1.501749 7.726751,1.679564 4.517548,0.226027 14.766077,0.234332 19.066009,0.01548 z M 23.950403,53.669377 c -6.118134,-0.398024 -9.223298,-2.757642 -10.138966,-7.704617 -0.380138,-2.053724 -0.380138,-22.090906 0,-24.144631 0.700042,-3.782031 2.892344,-6.157397 6.672596,-7.229778 1.183733,-0.335802 2.283762,-0.365999 13.331878,-0.365999 12.585362,0 12.832314,0.01472 15.221223,0.908554 1.325121,0.495784 3.109988,2.034094 3.875264,3.339936 1.141987,1.948661 1.296157,2.90215 1.525802,9.436454 0.248425,7.068967 -0.02558,17.332727 -0.507945,19.028311 -0.724897,2.547967 -2.345372,4.558948 -4.477755,5.556812 -2.321388,1.086309 -3.323228,1.178902 -13.629644,1.259716 -5.187959,0.04066 -10.530564,0.0022 -11.872453,-0.08476 z M 36.45746,46.135301 c 3.288829,-0.628421 6.444651,-2.689283 8.24886,-5.386804 1.4127,-2.112155 1.8764,-3.563035 1.999958,-6.25778 0.178666,-3.896363 -0.774287,-6.345745 -3.555064,-9.13762 -2.703856,-2.714657 -5.441222,-3.853289 -9.212394,-3.831981 -2.332061,0.0132 -3.792084,0.367607 -6.031747,1.46427 -3.970291,1.944056 -6.815872,6.469691 -6.831799,10.86535 -0.01027,2.833738 1.275362,6.113037 3.23501,8.251649 3.163107,3.451964 7.555535,4.910272 12.147176,4.032916 z m -4.743977,-4.436447 c -2.311526,-0.621161 -4.24296,-2.248136 -5.288277,-4.45466 -0.583805,-1.232325 -0.637088,-1.513005 -0.637088,-3.355964 0,-1.861351 0.04834,-2.109376 0.648974,-3.329421 0.406353,-0.825427 1.062664,-1.709503 1.755553,-2.364807 4.851243,-4.5881 12.772968,-2.066324 13.973319,4.448228 1.051879,5.70876 -4.620655,10.623781 -10.452481,9.056624 z M 48.968364,23.377258 c 1.253501,-0.897495 1.730845,-2.425124 1.122898,-3.593589 -0.577113,-1.109171 -1.242203,-1.521212 -2.594446,-1.607314 -1.136891,-0.07236 -1.320353,-0.02754 -1.907321,0.466368 -1.220865,1.027287 -1.544059,2.299822 -0.918777,3.617514 0.725798,1.529511 2.923687,2.100776 4.297646,1.117021 z"
       id="path1" /></g></svg>
