<?xml version="1.0" encoding="utf-8"?>
<!-- Generator: Adobe Illustrator 27.6.1, SVG Export Plug-In . SVG Version: 6.00 Build 0)  -->
<svg version="1.1" id="Calque_1" xmlns="http://www.w3.org/2000/svg" xmlns:xlink="http://www.w3.org/1999/xlink" x="0px" y="0px"
	 viewBox="0 0 172.91 172.91" style="enable-background:new 0 0 172.91 172.91;" xml:space="preserve">
<g>
	<path d="M116.11,1.62c3.87-0.46,7.92-0.29,11.94,0.53c8.11,1.64,14.06,6.02,16.93,13.97c0.78,2.16,0.99,4.56,0.96,6.89
		c-0.04,2.94,0.05,5.91-1.15,8.72c-2.57,6.04-6.98,7.5-12.49,6.49c-2.97-0.55-5.22-2.45-6.37-5.68c-0.65-1.82-1.04-3.57-0.99-5.39
		c0.06-2.59-1.61-3.33-3.58-3.6c-2.56-0.34-5.13-0.14-7.7,0.19c-5.61,0.72-10.86,2.52-16.05,4.74c-3.84,1.64-7.4,3.75-11.11,5.61
		c-2.82,1.42-4.08,3.89-4.59,6.87c-1.21,7.06-2.03,14.17-2.84,21.28c-0.33,2.9-0.56,5.8-0.8,8.71c-0.1,1.17,0.02,2.34,0.39,3.45
		c0.31,0.94,1.28,1.29,2.14,0.82c5.72-3.12,11.64-5.81,17.69-8.24c3.7-1.48,7.42-2.86,11.19-4.15c2.7-0.92,5.44-1.43,8.21-1.92
		c0.82-0.15,6.19-1.28,8.38-0.84c3.02,0.6,5.19,2.33,6.74,4.88c0.46,0.76,0.68,1.7,0.83,2.59c0.81,4.88-0.63,8.69-6.11,10.17
		c-5.89,1.59-11.88,2.89-17.58,5.08c-4.6,1.77-9.14,3.71-13.66,5.69c-4.59,2-8.79,4.66-13.08,7.19c-1.5,0.89-2.61,2.17-3.62,3.56
		c-0.47,0.64-0.45,1.41-0.41,2.16c0.28,4.79,1,9.52,1.83,14.24c0.43,2.46,3.65,15.68,3.96,16.95c2.18,8.96,5.73,17.36,10.08,25.46
		c0.9,1.69,1.7,3.43,2.31,5.25c1,3,0.13,5.65-2.69,7.05c-3.08,1.54-6.34,1.69-9.46,0.08c-2.04-1.05-3.43-2.91-4.61-4.82
		c-3.8-6.14-6.83-12.67-9.41-19.41c-2.13-5.56-3.88-11.24-5.35-17.02c-0.32-1.25-3.11-12.79-3.7-14.09
		c-0.86-1.88-2.13-2.16-3.58-0.71c-1.62,1.61-3.15,3.32-4.74,4.96c-0.9,0.92-1.86,1.78-2.84,2.62c-2,1.72-4.36,2.17-6.85,2.1
		c-3.33-0.1-6.32-3.34-6.75-6.92c-0.64-5.32,1.42-9.67,4.89-13.39c4.11-4.41,8.3-8.76,13.05-12.51c2.75-2.18,4.05-4.94,3.66-8.51
		c-0.9-8.16-0.34-16.3,0.26-24.45c0.09-1.24-0.04-2.5-0.12-3.74c-0.04-0.72-0.2-1.46-0.95-1.77c-0.81-0.33-1.47,0.13-2,0.67
		c-3.06,3.12-6.05,6.3-8.45,9.99c-1.33,2.03-2.69,4.11-4.85,5.29c-4.76,2.59-8,2.08-12.12-1.41c-3.47-2.94-4.55-6.85-3.63-11.29
		c0.9-4.32,3.02-8.05,6.02-11.19c6.75-7.04,14.18-13.3,22.13-18.95c7.62-5.42,15.7-10.01,24.08-14.08
		c5.57-2.71,11.4-4.74,17.24-6.81c3.08-1.09,6.17-1.46,9.24-2.23C107.29,2.4,113.9,1.62,116.11,1.62z"/>
</g>
</svg>
